<?xml version="1.0" encoding="utf-8"?>
<!-- Generator: Adobe Illustrator 25.0.1, SVG Export Plug-In . SVG Version: 6.00 Build 0)  -->
<svg version="1.1" xmlns="http://www.w3.org/2000/svg" xmlns:xlink="http://www.w3.org/1999/xlink" x="0px" y="0px"
	 viewBox="0 0 2500 2500" style="enable-background:new 0 0 2500 2500;" xml:space="preserve">
<style type="text/css">
	.st0{fill:#FFFFFF;stroke:#FFFFFF;stroke-width:8;}
	.st1{fill:none;stroke:#FFFFFF;stroke-width:30;}
</style>
<g id="main">
	<g>
		<polygon class="st0" points="1996.2,819.2 1775.1,691.5 1554,819.2 1775.1,946.8 1775.1,1202.1 1996.2,1074.5 		"/>
		<polygon class="st0" points="1250,388.4 1028.9,516 1028.9,771.3 1250,643.7 1471.1,771.3 1471.1,516 		"/>
		<polygon class="st0" points="503.8,819.2 503.8,1074.5 724.9,1202.1 724.9,946.8 946,819.2 724.9,691.5 		"/>
		<polygon class="st0" points="503.8,1680.8 724.9,1808.5 946,1680.8 724.9,1553.2 724.9,1297.9 503.8,1425.5 		"/>
		<polygon class="st0" points="1250,2111.6 1471.1,1984 1471.1,1728.7 1250,1856.3 1028.9,1728.7 1028.9,1984 		"/>
		<polygon class="st0" points="1996.2,1680.8 1996.2,1425.5 1775.1,1297.9 1775.1,1553.2 1554,1680.8 1775.1,1808.5 		"/>
		<polygon class="st0" points="1735.5,409.1 1514.4,536.7 1514.4,792 1735.5,664.4 		"/>
		<polygon class="st0" points="2221,1250 1999.9,1122.4 1778.8,1250 1999.9,1377.6 		"/>
		<polygon class="st0" points="1735.5,2090.9 1735.5,1835.6 1514.4,1708 1514.4,1963.3 		"/>
		<polygon class="st0" points="764.5,2090.9 985.6,1963.3 985.6,1708 764.5,1835.6 		"/>
		<polygon class="st0" points="279,1250 500.1,1377.6 721.2,1250 500.1,1122.4 		"/>
		<polygon class="st0" points="764.5,409.1 764.5,664.4 985.6,792 985.6,536.7 		"/>
		<polygon class="st0" points="1028.9,867.1 1250,994.7 1471.1,867.1 1471.1,1122.4 1692.2,1250 1471.1,1377.6 1471.1,1632.9 
			1250,1505.3 1028.9,1632.9 1028.9,1377.6 807.8,1250 1028.9,1122.4 		"/>
	</g>
</g>
<g id="ring">
	<polygon class="st1" points="1250,27.1 191,638.6 191,1861.4 1250,2472.9 2309,1861.4 2309,638.6 	"/>
</g>
</svg>
